<svg width="69" height="61" viewBox="0 0 69 61" fill="none" xmlns="http://www.w3.org/2000/svg">
<mask id="path-1-inside-1_930_123" fill="white">
<path d="M15.8182 40.132C16.6052 40.132 17.2906 39.84 17.8745 39.2562C18.4559 38.6723 18.7465 37.9868 18.7465 37.1999C18.7465 36.4129 18.4546 35.7275 17.8707 35.1436C17.2868 34.5597 16.6014 34.269 15.8144 34.2716C15.0274 34.2741 14.3445 34.566 13.7657 35.1474C13.1869 35.7287 12.895 36.4142 12.8899 37.2037C12.8899 37.9881 13.1819 38.6723 13.7657 39.2562C14.3496 39.84 15.0338 40.132 15.8182 40.132ZM15.8182 29.584C16.6052 29.584 17.2906 29.292 17.8745 28.7081C18.4559 28.1242 18.7465 27.4401 18.7465 26.6557C18.7465 25.8712 18.4546 25.1858 17.8707 24.5994C17.2868 24.0129 16.6014 23.721 15.8144 23.7235C15.0274 23.7261 14.3445 24.018 13.7657 24.5994C13.1869 25.1807 12.895 25.8661 12.8899 26.6557C12.8848 27.4452 13.1768 28.1306 13.7657 28.7119C14.3547 29.2933 15.0389 29.5852 15.8182 29.5878M15.8182 19.0398C16.6052 19.0398 17.2906 18.7478 17.8745 18.1639C18.4584 17.58 18.7491 16.8946 18.7465 16.1076C18.744 15.3207 18.4521 14.6365 17.8707 14.0551C17.2894 13.4738 16.6039 13.1819 15.8144 13.1793C15.0249 13.1768 14.342 13.4687 13.7657 14.0551C13.1895 14.6416 12.8975 15.327 12.8899 16.1114C12.8823 16.8959 13.1742 17.5813 13.7657 18.1677C14.3572 18.7542 15.0414 19.0448 15.8182 19.0398ZM29.4393 39.1077H41.8875C42.4282 39.1077 42.8801 38.9236 43.2431 38.5555C43.6061 38.1874 43.7889 37.7355 43.7914 37.1999C43.794 36.6642 43.6112 36.2123 43.2431 35.8442C42.875 35.4761 42.4231 35.2934 41.8875 35.2959H29.4355C28.8973 35.2959 28.4467 35.4787 28.0836 35.8442C27.7181 36.2098 27.5353 36.6629 27.5353 37.2037C27.5353 37.7444 27.7181 38.1963 28.0836 38.5593C28.4492 38.9223 28.9011 39.1038 29.4393 39.1038M29.4393 28.5596H53.3113C53.852 28.5596 54.3039 28.3768 54.6669 28.0113C55.03 27.6457 55.2127 27.1926 55.2153 26.6518C55.2178 26.1111 55.035 25.6592 54.6669 25.2962C54.2988 24.9332 53.847 24.7517 53.3113 24.7517H29.4355C28.8973 24.7517 28.4467 24.9345 28.0836 25.3C27.7206 25.6656 27.5378 26.1187 27.5353 26.6595C27.5327 27.2002 27.7155 27.6521 28.0836 28.0151C28.4517 28.3781 28.9036 28.5596 29.4393 28.5596ZM29.4393 18.0116H53.3113C53.852 18.0116 54.3039 17.8301 54.6669 17.4671C55.0325 17.1015 55.2153 16.6484 55.2153 16.1076C55.2153 15.5669 55.0325 15.115 54.6669 14.752C54.3014 14.389 53.8495 14.2075 53.3113 14.2075H29.4355C28.8973 14.2075 28.4467 14.3902 28.0836 14.7558C27.7206 15.1214 27.5378 15.5745 27.5353 16.1152C27.5327 16.656 27.7155 17.1078 28.0836 17.4709C28.4517 17.8339 28.9036 18.0116 29.4393 18.0116ZM11.7171 53.3113L5.22832 59.8001C4.26617 60.7622 3.15425 60.9792 1.89255 60.4512C0.63085 59.9232 0 58.9813 0 57.6257V6.15365C0 4.39945 0.587694 2.93593 1.76308 1.76308C2.93847 0.590232 4.40072 0.00253863 6.14984 0H62.3933C64.1449 0 65.6072 0.587694 66.78 1.76308C67.9529 2.93847 68.5406 4.40199 68.5431 6.15365V47.1615C68.5431 48.9131 67.9554 50.3766 66.78 51.552C65.6046 52.7274 64.1424 53.3138 62.3933 53.3113H11.7171Z"/>
</mask>
<path d="M15.8182 40.132C16.6052 40.132 17.2906 39.84 17.8745 39.2562C18.4559 38.6723 18.7465 37.9868 18.7465 37.1999C18.7465 36.4129 18.4546 35.7275 17.8707 35.1436C17.2868 34.5597 16.6014 34.269 15.8144 34.2716C15.0274 34.2741 14.3445 34.566 13.7657 35.1474C13.1869 35.7287 12.895 36.4142 12.8899 37.2037C12.8899 37.9881 13.1819 38.6723 13.7657 39.2562C14.3496 39.84 15.0338 40.132 15.8182 40.132ZM15.8182 29.584C16.6052 29.584 17.2906 29.292 17.8745 28.7081C18.4559 28.1242 18.7465 27.4401 18.7465 26.6557C18.7465 25.8712 18.4546 25.1858 17.8707 24.5994C17.2868 24.0129 16.6014 23.721 15.8144 23.7235C15.0274 23.7261 14.3445 24.018 13.7657 24.5994C13.1869 25.1807 12.895 25.8661 12.8899 26.6557C12.8848 27.4452 13.1768 28.1306 13.7657 28.7119C14.3547 29.2933 15.0389 29.5852 15.8182 29.5878M15.8182 19.0398C16.6052 19.0398 17.2906 18.7478 17.8745 18.1639C18.4584 17.58 18.7491 16.8946 18.7465 16.1076C18.744 15.3207 18.4521 14.6365 17.8707 14.0551C17.2894 13.4738 16.6039 13.1819 15.8144 13.1793C15.0249 13.1768 14.342 13.4687 13.7657 14.0551C13.1895 14.6416 12.8975 15.327 12.8899 16.1114C12.8823 16.8959 13.1742 17.5813 13.7657 18.1677C14.3572 18.7542 15.0414 19.0448 15.8182 19.0398ZM29.4393 39.1077H41.8875C42.4282 39.1077 42.8801 38.9236 43.2431 38.5555C43.6061 38.1874 43.7889 37.7355 43.7914 37.1999C43.794 36.6642 43.6112 36.2123 43.2431 35.8442C42.875 35.4761 42.4231 35.2934 41.8875 35.2959H29.4355C28.8973 35.2959 28.4467 35.4787 28.0836 35.8442C27.7181 36.2098 27.5353 36.6629 27.5353 37.2037C27.5353 37.7444 27.7181 38.1963 28.0836 38.5593C28.4492 38.9223 28.9011 39.1038 29.4393 39.1038M29.4393 28.5596H53.3113C53.852 28.5596 54.3039 28.3768 54.6669 28.0113C55.03 27.6457 55.2127 27.1926 55.2153 26.6518C55.2178 26.1111 55.035 25.6592 54.6669 25.2962C54.2988 24.9332 53.847 24.7517 53.3113 24.7517H29.4355C28.8973 24.7517 28.4467 24.9345 28.0836 25.3C27.7206 25.6656 27.5378 26.1187 27.5353 26.6595C27.5327 27.2002 27.7155 27.6521 28.0836 28.0151C28.4517 28.3781 28.9036 28.5596 29.4393 28.5596ZM29.4393 18.0116H53.3113C53.852 18.0116 54.3039 17.8301 54.6669 17.4671C55.0325 17.1015 55.2153 16.6484 55.2153 16.1076C55.2153 15.5669 55.0325 15.115 54.6669 14.752C54.3014 14.389 53.8495 14.2075 53.3113 14.2075H29.4355C28.8973 14.2075 28.4467 14.3902 28.0836 14.7558C27.7206 15.1214 27.5378 15.5745 27.5353 16.1152C27.5327 16.656 27.7155 17.1078 28.0836 17.4709C28.4517 17.8339 28.9036 18.0116 29.4393 18.0116ZM11.7171 53.3113L5.22832 59.8001C4.26617 60.7622 3.15425 60.9792 1.89255 60.4512C0.63085 59.9232 0 58.9813 0 57.6257V6.15365C0 4.39945 0.587694 2.93593 1.76308 1.76308C2.93847 0.590232 4.40072 0.00253863 6.14984 0H62.3933C64.1449 0 65.6072 0.587694 66.78 1.76308C67.9529 2.93847 68.5406 4.40199 68.5431 6.15365V47.1615C68.5431 48.9131 67.9554 50.3766 66.78 51.552C65.6046 52.7274 64.1424 53.3138 62.3933 53.3113H11.7171Z" fill="#BDD0FF"/>
<path d="M17.8745 39.2562L19.2887 40.6704L19.2918 40.6673L17.8745 39.2562ZM12.8899 37.2037L10.8899 37.1908V37.2037H12.8899ZM17.8745 28.7081L19.2887 30.1224L19.2918 30.1193L17.8745 28.7081ZM15.8182 19.0398L15.8182 17.0397L15.8052 17.0398L15.8182 19.0398ZM41.8875 35.2959L41.8875 37.2959L41.8969 37.2959L41.8875 35.2959ZM28.0836 35.8442L29.4979 37.2585L29.5028 37.2535L28.0836 35.8442ZM54.6669 17.4671L56.0811 18.8813L54.6669 17.4671ZM53.3113 14.2075V12.2075V14.2075ZM11.7171 53.3113V51.3113H10.8886L10.3028 51.8971L11.7171 53.3113ZM5.22832 59.8001L6.64253 61.2143L6.64253 61.2143L5.22832 59.8001ZM0 57.6257H-2H0ZM6.14984 0L6.14984 -2L6.14694 -2L6.14984 0ZM68.5431 6.15365L70.5431 6.15365L70.5431 6.15075L68.5431 6.15365ZM62.3933 53.3113L62.3962 51.3113H62.3933V53.3113ZM15.8182 42.132C17.164 42.132 18.3503 41.6088 19.2887 40.6704L16.4603 37.8419C16.2309 38.0713 16.0464 38.132 15.8182 38.132V42.132ZM19.2918 40.6673C20.2268 39.7282 20.7465 38.5428 20.7465 37.1999H16.7465C16.7465 37.4309 16.6849 37.6164 16.4572 37.845L19.2918 40.6673ZM20.7465 37.1999C20.7465 35.8541 20.2233 34.6678 19.2849 33.7294L16.4565 36.5578C16.6859 36.7872 16.7465 36.9717 16.7465 37.1999H20.7465ZM19.2849 33.7294C18.3451 32.7895 17.1561 32.2672 15.808 32.2716L15.8209 36.2715C16.0466 36.2708 16.2286 36.3299 16.4565 36.5578L19.2849 33.7294ZM15.808 32.2716C14.4668 32.2759 13.2833 32.7973 12.3484 33.7363L15.183 36.5585C15.4058 36.3348 15.5881 36.2723 15.8209 36.2715L15.808 32.2716ZM12.3484 33.7363C11.4157 34.6731 10.8985 35.8545 10.89 37.1908L14.8899 37.2165C14.8914 36.9738 14.9582 36.7843 15.183 36.5585L12.3484 33.7363ZM10.8899 37.2037C10.8899 38.5488 11.4145 39.7334 12.3515 40.6704L15.18 37.8419C14.9492 37.6112 14.8899 37.4274 14.8899 37.2037H10.8899ZM12.3515 40.6704C13.2885 41.6074 14.4731 42.132 15.8182 42.132V38.132C15.5945 38.132 15.4107 38.0727 15.18 37.8419L12.3515 40.6704ZM15.8182 31.584C17.164 31.584 18.3503 31.0607 19.2887 30.1223L16.4603 27.2939C16.2309 27.5233 16.0464 27.584 15.8182 27.584V31.584ZM19.2918 30.1193C20.2254 29.1816 20.7465 27.9979 20.7465 26.6557H16.7465C16.7465 26.8823 16.6863 27.0669 16.4572 27.297L19.2918 30.1193ZM20.7465 26.6557C20.7465 25.3109 20.2223 24.1266 19.288 23.1882L16.4534 26.0105C16.6869 26.245 16.7465 26.4316 16.7465 26.6557H20.7465ZM19.288 23.1882C18.3489 22.245 17.159 21.7192 15.808 21.7235L15.8209 25.7235C16.0438 25.7228 16.2248 25.7809 16.4534 26.0105L19.288 23.1882ZM15.808 21.7235C14.4667 21.7279 13.2833 22.2493 12.3484 23.1882L15.183 26.0105C15.4058 25.7868 15.5881 25.7243 15.8209 25.7235L15.808 21.7235ZM12.3484 23.1882C11.4157 24.1251 10.8985 25.3065 10.89 26.6428L14.8899 26.6685C14.8914 26.4258 14.9582 26.2363 15.183 26.0105L12.3484 23.1882ZM10.89 26.6428C10.8812 28.0001 11.4086 29.1955 12.3608 30.1353L15.1707 27.2886C14.945 27.0657 14.8884 26.8903 14.8899 26.6685L10.89 26.6428ZM12.3608 30.1353C13.2969 31.0594 14.4739 31.5834 15.8117 31.5878L15.8247 27.5878C15.6038 27.5871 15.4125 27.5272 15.1707 27.2886L12.3608 30.1353ZM15.8182 21.0398C17.164 21.0398 18.3503 20.5165 19.2887 19.5781L16.4603 16.7497C16.2309 16.9791 16.0464 17.0398 15.8182 17.0398V21.0398ZM19.2887 19.5781C20.2286 18.6383 20.7509 17.4494 20.7465 16.1012L16.7465 16.1141C16.7473 16.3399 16.6882 16.5218 16.4603 16.7497L19.2887 19.5781ZM20.7465 16.1012C20.7422 14.7603 20.2212 13.5772 19.2849 12.6409L16.4565 15.4694C16.6829 15.6958 16.7458 15.881 16.7465 16.1141L20.7465 16.1012ZM19.2849 12.6409C18.3473 11.7033 17.1624 11.1836 15.8208 11.1793L15.808 15.1793C16.0455 15.1801 16.2314 15.2443 16.4565 15.4694L19.2849 12.6409ZM15.8208 11.1793C14.4682 11.175 13.2756 11.7005 12.3392 12.6533L15.1923 15.457C15.4084 15.237 15.5816 15.1786 15.808 15.1793L15.8208 11.1793ZM12.3392 12.6533C11.4194 13.5893 10.9029 14.763 10.89 16.092L14.8898 16.1309C14.8921 15.891 14.9595 15.6938 15.1923 15.457L12.3392 12.6533ZM10.89 16.092C10.8768 17.4527 11.4089 18.6475 12.3576 19.588L15.1738 16.7474C14.9395 16.5151 14.8878 16.3391 14.8898 16.1309L10.89 16.092ZM12.3576 19.588C13.2967 20.519 14.4814 21.0485 15.8313 21.0397L15.8052 17.0398C15.6014 17.0411 15.4178 16.9893 15.1738 16.7474L12.3576 19.588ZM29.4393 41.1077H41.8875V37.1077H29.4393V41.1077ZM41.8875 41.1077C42.936 41.1077 43.9094 40.7281 44.6671 39.9599L41.8191 37.1511C41.8159 37.1544 41.8201 37.1496 41.8323 37.1413C41.8447 37.1329 41.8603 37.1243 41.8775 37.1174C41.8945 37.1104 41.9069 37.1076 41.9117 37.1067C41.9161 37.1059 41.9089 37.1077 41.8875 37.1077V41.1077ZM44.6671 39.9599C45.4113 39.2052 45.7865 38.2464 45.7914 37.2093L41.7914 37.1904C41.7913 37.2116 41.7896 37.2196 41.79 37.217C41.7906 37.214 41.7928 37.2043 41.7984 37.1905C41.804 37.1767 41.8107 37.1645 41.8167 37.1555C41.8225 37.1467 41.8247 37.1454 41.8191 37.1511L44.6671 39.9599ZM45.7914 37.2093C45.7964 36.1573 45.4149 35.1876 44.6573 34.43L41.8289 37.2584C41.8343 37.2639 41.8313 37.2618 41.8243 37.2513C41.8171 37.2406 41.809 37.2261 41.8022 37.2092C41.7954 37.1924 41.7923 37.1793 41.7911 37.1729C41.79 37.167 41.7915 37.1719 41.7914 37.1904L45.7914 37.2093ZM44.6573 34.43C43.8997 33.6724 42.93 33.2909 41.878 33.2959L41.8969 37.2959C41.9155 37.2958 41.9204 37.2973 41.9144 37.2962C41.908 37.2951 41.8949 37.2919 41.8781 37.2851C41.8612 37.2783 41.8467 37.2703 41.836 37.263C41.8255 37.256 41.8234 37.253 41.8289 37.2584L44.6573 34.43ZM41.8875 33.2959H29.4355V37.2959H41.8875V33.2959ZM29.4355 33.2959C28.391 33.2959 27.4213 33.6729 26.6645 34.435L29.5028 37.2535C29.506 37.2502 29.502 37.2548 29.4901 37.2628C29.4779 37.2711 29.4625 37.2795 29.4456 37.2863C29.4289 37.2931 29.4166 37.296 29.4118 37.2968C29.4074 37.2977 29.4144 37.2959 29.4355 37.2959V33.2959ZM26.6694 34.43C25.91 35.1894 25.5353 36.1597 25.5353 37.2037H29.5353C29.5353 37.1814 29.5371 37.1732 29.5366 37.1763C29.5359 37.1798 29.5335 37.1908 29.5272 37.2064C29.5208 37.2221 29.513 37.2365 29.5055 37.2478C29.498 37.2589 29.4941 37.2622 29.4978 37.2584L26.6694 34.43ZM25.5353 37.2037C25.5353 38.2478 25.9103 39.2197 26.6744 39.9784L29.4929 37.1402C29.49 37.1373 29.4949 37.1417 29.503 37.1538C29.5114 37.1662 29.5197 37.1815 29.5264 37.1982C29.5331 37.2147 29.5358 37.2264 29.5365 37.2304C29.5371 37.2339 29.5353 37.226 29.5353 37.2037H25.5353ZM26.6744 39.9784C27.4328 40.7316 28.3993 41.1038 29.4393 41.1038V37.1038C29.4174 37.1038 29.4093 37.102 29.4125 37.1026C29.416 37.1032 29.4268 37.1057 29.4422 37.1118C29.4577 37.118 29.4717 37.1257 29.4828 37.133C29.4936 37.1403 29.4968 37.1441 29.4929 37.1402L26.6744 39.9784ZM29.4393 30.5596H53.3113V26.5596H29.4393V30.5596ZM53.3113 30.5596C54.3555 30.5596 55.3273 30.1846 56.0861 29.4206L53.2478 26.602C53.245 26.6049 53.2493 26.6 53.2615 26.5919C53.2738 26.5835 53.2892 26.5752 53.3058 26.5685C53.3223 26.5618 53.334 26.5592 53.338 26.5584C53.3415 26.5578 53.3336 26.5596 53.3113 26.5596V30.5596ZM56.0861 29.4206C56.8387 28.6626 57.2104 27.6978 57.2153 26.6612L53.2153 26.6425C53.2152 26.666 53.2132 26.6758 53.2135 26.6744C53.2138 26.6725 53.2158 26.6632 53.2215 26.6491C53.2272 26.6349 53.2343 26.6218 53.2413 26.6113C53.2481 26.601 53.2517 26.5981 53.2478 26.602L56.0861 29.4206ZM57.2153 26.6612C57.2202 25.6097 56.8421 24.6323 56.0713 23.8722L53.2626 26.7202C53.2654 26.723 53.2601 26.7182 53.2513 26.7052C53.2424 26.692 53.2334 26.6755 53.226 26.6573C53.2187 26.6393 53.2156 26.6259 53.2146 26.6203C53.2137 26.6151 53.2154 26.6215 53.2153 26.6425L57.2153 26.6612ZM56.0713 23.8722C55.3142 23.1255 54.3514 22.7517 53.3113 22.7517V26.7517C53.332 26.7517 53.3393 26.7534 53.3358 26.7528C53.3319 26.752 53.3212 26.7496 53.3065 26.7437C53.2916 26.7377 53.2786 26.7306 53.2687 26.7241C53.2592 26.7177 53.2573 26.715 53.2626 26.7202L56.0713 23.8722ZM53.3113 22.7517H29.4355V26.7517H53.3113V22.7517ZM29.4355 22.7517C28.391 22.7517 27.4213 23.1287 26.6645 23.8907L29.5028 26.7093C29.506 26.706 29.502 26.7106 29.4901 26.7186C29.4779 26.7268 29.4625 26.7352 29.4456 26.7421C29.4289 26.7489 29.4166 26.7517 29.4118 26.7526C29.4074 26.7534 29.4144 26.7517 29.4355 26.7517V22.7517ZM26.6645 23.8907C25.9118 24.6487 25.5402 25.6135 25.5353 26.6501L29.5353 26.6689C29.5354 26.6453 29.5374 26.6355 29.5371 26.6369C29.5368 26.6388 29.5347 26.6481 29.5291 26.6622C29.5233 26.6764 29.5162 26.6895 29.5093 26.7C29.5024 26.7103 29.4989 26.7132 29.5028 26.7093L26.6645 23.8907ZM25.5353 26.6501C25.5304 27.7017 25.9085 28.679 26.6793 29.4391L29.488 26.5911C29.4852 26.5883 29.4905 26.5931 29.4992 26.6061C29.5082 26.6193 29.5172 26.6358 29.5245 26.654C29.5318 26.672 29.5349 26.6854 29.536 26.691C29.5369 26.6962 29.5352 26.6898 29.5353 26.6689L25.5353 26.6501ZM26.6793 29.4391C27.4364 30.1858 28.3991 30.5596 29.4393 30.5596V26.5596C29.4186 26.5596 29.4113 26.5579 29.4148 26.5585C29.4186 26.5593 29.4293 26.5617 29.4441 26.5676C29.4589 26.5736 29.472 26.5807 29.4818 26.5872C29.4914 26.5936 29.4933 26.5963 29.488 26.5911L26.6793 29.4391ZM29.4393 20.0116H53.3113V16.0116H29.4393V20.0116ZM53.3113 20.0116C54.3511 20.0116 55.3214 19.641 56.0811 18.8813L53.2527 16.0529C53.2502 16.0554 53.2547 16.0505 53.2668 16.0424C53.2791 16.0342 53.2942 16.0261 53.3103 16.0196C53.3262 16.0132 53.3373 16.0108 53.3404 16.0102C53.3432 16.0097 53.3344 16.0116 53.3113 16.0116V20.0116ZM56.0811 18.8813C56.8406 18.1219 57.2153 17.1516 57.2153 16.1076H53.2153C53.2153 16.1299 53.2134 16.1381 53.214 16.135C53.2146 16.1315 53.2171 16.1205 53.2234 16.1049C53.2297 16.0892 53.2375 16.0748 53.2451 16.0635C53.2525 16.0524 53.2565 16.0491 53.2527 16.0529L56.0811 18.8813ZM57.2153 16.1076C57.2153 15.0635 56.8403 14.0916 56.0762 13.3329L53.2577 16.1711C53.2605 16.174 53.2557 16.1696 53.2475 16.1575C53.2392 16.1451 53.2308 16.1298 53.2241 16.1131C53.2175 16.0966 53.2148 16.0849 53.2141 16.0809C53.2134 16.0774 53.2153 16.0853 53.2153 16.1076H57.2153ZM56.0762 13.3329C55.3178 12.5797 54.3513 12.2075 53.3113 12.2075L53.3113 16.2075C53.3332 16.2075 53.3412 16.2093 53.3381 16.2087C53.3346 16.2081 53.3237 16.2056 53.3084 16.1995C53.2929 16.1933 53.2788 16.1856 53.2678 16.1783C53.2569 16.171 53.2538 16.1673 53.2577 16.1711L56.0762 13.3329ZM53.3113 12.2075H29.4355V16.2075H53.3113V12.2075ZM29.4355 12.2075C28.391 12.2075 27.4213 12.5845 26.6645 13.3465L29.5028 16.1651C29.506 16.1618 29.502 16.1664 29.4901 16.1744C29.4779 16.1826 29.4625 16.191 29.4456 16.1979C29.4289 16.2047 29.4166 16.2075 29.4118 16.2084C29.4074 16.2092 29.4144 16.2075 29.4355 16.2075V12.2075ZM26.6645 13.3465C25.9118 14.1045 25.5402 15.0692 25.5353 16.1059L29.5353 16.1246C29.5354 16.101 29.5374 16.0913 29.5371 16.0927C29.5368 16.0945 29.5347 16.1039 29.5291 16.118C29.5233 16.1322 29.5162 16.1453 29.5093 16.1558C29.5024 16.166 29.4989 16.169 29.5028 16.1651L26.6645 13.3465ZM25.5353 16.1059C25.5304 17.1574 25.9085 18.1347 26.6793 18.8949L29.488 16.0469C29.4852 16.0441 29.4905 16.0489 29.4992 16.0618C29.5082 16.0751 29.5172 16.0916 29.5245 16.1097C29.5318 16.1278 29.5349 16.1411 29.536 16.1468C29.5369 16.152 29.5352 16.1456 29.5353 16.1246L25.5353 16.1059ZM26.6793 18.8949C27.4437 19.6487 28.4098 20.0116 29.4393 20.0116V16.0116C29.4161 16.0116 29.4071 16.0097 29.4093 16.0101C29.4119 16.0106 29.4223 16.0128 29.4373 16.0188C29.4526 16.0249 29.4666 16.0324 29.4778 16.0398C29.4887 16.047 29.492 16.0508 29.488 16.0469L26.6793 18.8949ZM10.3028 51.8971L3.8141 58.3858L6.64253 61.2143L13.1313 54.7255L10.3028 51.8971ZM3.8141 58.3858C3.55699 58.643 3.38213 58.7034 3.28959 58.7215C3.19617 58.7397 3.00723 58.7496 2.66468 58.6063L1.12042 62.2962C2.03958 62.6808 3.03745 62.8462 4.05594 62.6474C5.07532 62.4484 5.9375 61.9193 6.64253 61.2143L3.8141 58.3858ZM2.66468 58.6063C2.32005 58.462 2.19036 58.3187 2.13482 58.2358C2.08012 58.1541 2 57.9861 2 57.6257H-2C-2 58.6209 -1.7647 59.6016 -1.18855 60.4618C-0.613237 61.3207 0.203355 61.9123 1.12042 62.2962L2.66468 58.6063ZM2 57.6257V6.15365H-2V57.6257H2ZM2 6.15365C2 4.89731 2.39934 3.95357 3.17577 3.17882L0.350397 0.34734C-1.22395 1.91829 -2 3.9016 -2 6.15365H2ZM3.17577 3.17882C3.95529 2.40099 4.90094 2.00181 6.15274 2L6.14694 -2C3.9005 -1.99674 1.92165 -1.22052 0.350397 0.34734L3.17577 3.17882ZM6.14984 2H62.3933V-2H6.14984V2ZM62.3933 2C63.6462 2 64.5889 2.39874 65.3643 3.17577L68.1958 0.350397C66.6254 -1.22335 64.6437 -2 62.3933 -2V2ZM65.3643 3.17577C66.1415 3.95469 66.5413 4.90132 66.5431 6.15655L70.5431 6.15075C70.5398 3.90266 69.7642 1.92225 68.1958 0.350397L65.3643 3.17577ZM66.5431 6.15365V47.1615H70.5431V6.15365H66.5431ZM66.5431 47.1615C66.5431 48.4144 66.1443 49.3594 65.3658 50.1378L68.1942 52.9662C69.7665 51.3939 70.5431 49.4118 70.5431 47.1615H66.5431ZM65.3658 50.1378C64.5875 50.9161 63.6448 51.3131 62.3962 51.3113L62.3904 55.3113C64.64 55.3146 66.6218 54.5387 68.1942 52.9662L65.3658 50.1378ZM62.3933 51.3113H11.7171V55.3113H62.3933V51.3113Z" fill="#192A56" mask="url(#path-1-inside-1_930_123)"/>
</svg>
